<?xml version="1.0" encoding="UTF-8"?>
<svg width="15px" height="18px" viewBox="0 0 15 18" version="1.1" xmlns="http://www.w3.org/2000/svg" xmlns:xlink="http://www.w3.org/1999/xlink">
    <!-- Generator: Sketch 42 (36781) - http://www.bohemiancoding.com/sketch -->
    <title>Group</title>
    <desc>Created with Sketch.</desc>
    <defs>
        <polygon id="path-1" points="14.66975 -0.000128571429 1.24661621 -0.000128571429 1.24661621 17.5702351 14.66975 17.5702351 14.66975 -0.000128571429"></polygon>
    </defs>
    <g id="Welcome" stroke="none" stroke-width="1" fill="none" fill-rule="evenodd">
        <g id="Home" transform="translate(-167.000000, -3233.000000)">
            <g id="Group" transform="translate(167.000000, 3233.000000)">
                <polygon id="Fill-1" fill="#F9F9F9" points="0 12.5690143 3.68375 12.5690143 3.68375 11.2421571 0 11.2421571"></polygon>
                <polygon id="Fill-2" fill="#F9F9F9" points="0 6.28572857 3.68375 6.28572857 3.68375 5.00258571 0 5.00258571"></polygon>
                <mask id="mask-2" fill="white">
                    <use xlink:href="#path-1"></use>
                </mask>
                <g id="Clip-4"></g>
                <path d="M1.261625,13.7643429 L2.531625,13.7643429 C2.911625,13.7643429 3.291625,13.7656286 3.671625,13.7643429 C4.301625,13.7630571 4.902875,13.1780571 4.865375,12.5300571 C4.841625,12.1044857 4.842875,11.6750571 4.865375,11.2482 C4.896625,10.6696286 4.312875,10.0357714 3.682875,10.0447714 C2.881625,10.0563429 2.079125,10.0473429 1.262875,10.0473429 L1.262875,7.52477143 L1.494125,7.52477143 C2.167875,7.52477143 2.841625,7.53377143 3.515375,7.5222 C3.910375,7.51448571 4.286625,7.42834286 4.565375,7.0992 C4.750375,6.87934286 4.860375,6.62734286 4.860375,6.33162857 C4.862875,5.89705714 4.844125,5.4612 4.865375,5.02662857 C4.896625,4.3812 4.302875,3.78462857 3.679125,3.80262857 C2.879125,3.82577143 2.076625,3.80777143 1.247875,3.80777143 L1.247875,3.55834286 C1.247875,2.76248571 1.250375,1.96662857 1.246625,1.16948571 C1.244125,0.579342857 1.775375,0.00462857143 2.381625,0.00462857143 C4.216625,0.00205714286 6.051625,0.00334285714 7.886625,0.00334285714 C9.750375,0.00334285714 11.614125,0.00848571429 13.477875,-0.000514285714 C13.984125,-0.0018 14.567875,0.4572 14.625375,1.0152 C14.644125,1.1952 14.667875,1.37648571 14.667875,1.55777143 C14.670375,6.4242 14.670375,11.2906286 14.667875,16.1570571 C14.667875,17.0300571 14.146625,17.5674857 13.291625,17.5674857 C9.707875,17.5713429 6.124125,17.5713429 2.539125,17.5662 C2.016625,17.5662 1.595375,17.3463429 1.351625,16.8487714 C1.292875,16.7292 1.254125,16.5877714 1.252875,16.4553429 C1.244125,15.5926286 1.247875,14.7299143 1.249125,13.8672 C1.249125,13.8402 1.255375,13.8119143 1.261625,13.7643429" id="Fill-3" fill="#F9F9F9" mask="url(#mask-2)"></path>
            </g>
        </g>
    </g>
</svg>