<svg id="Vrstva_1" data-name="Vrstva 1" xmlns="http://www.w3.org/2000/svg" viewBox="0 0 120.95 143.58"><defs><style>.cls-1{fill:#1d1d1b;}</style></defs><title>calendar</title><path class="cls-1" d="M222.33-337.4a2.22,2.22,0,0,0-1.27-.21,37.6,37.6,0,0,1-12.21-.57c-3.14-.68-4.48,4.14-1.33,4.82a41.94,41.94,0,0,0,12.59.84v19a2.6,2.6,0,0,0-.28-0.07c-8.83-1.42-17.51-.75-26.36.06-9.3.85-18.62,1.45-28,1.71a428.75,428.75,0,0,1-56.37-2.19v-18.13a69.43,69.43,0,0,1,15.79.77c3.15,0.52,4.5-4.29,1.33-4.82a75.23,75.23,0,0,0-19.62-.76,2.69,2.69,0,0,0-2.36,3.2,2.58,2.58,0,0,0-.14.84v130.32a2.26,2.26,0,0,0,1.36,2.16,2.26,2.26,0,0,0,2.17,1.36H221.07a2.27,2.27,0,0,0,2.08-1.17,2.3,2.3,0,0,0,2-2.36V-335A2.39,2.39,0,0,0,222.33-337.4Zm-58.74,30.59q13.56-.32,27.09-1.51c9.27-.81,18.56-2,27.83-0.49a2.58,2.58,0,0,0,1.6-.24v104.94h-111V-309.06A429,429,0,0,0,163.59-306.82Z" transform="translate(-104.16 342.69)"/><path class="cls-1" d="M136.2-325.71c2.92,1.27,5.47-3,2.52-4.32-3.78-1.65-3.82-6.56.43-7.61,3.12-.77,1.8-5.59-1.33-4.82C129.73-340.46,128.35-329.12,136.2-325.71Z" transform="translate(-104.16 342.69)"/><path class="cls-1" d="M151.82-326.75c3.22,0,3.22-5,0-5-1.71,0-3.5-1.5-3.16-3.36a3.23,3.23,0,0,1,3.64-2.39c3.21,0.28,3.19-4.73,0-5a8.15,8.15,0,0,0-8.66,7.33C143.32-330.55,147.35-326.78,151.82-326.75Z" transform="translate(-104.16 342.69)"/><path class="cls-1" d="M167.89-327.46c2.83-1.52.31-5.84-2.52-4.32-1,.55-2-1-2-1.84-0.07-1.77,1.63-3.36,2.94-4.29,2.6-1.85.1-6.19-2.52-4.32-3.4,2.42-6.55,6.43-5,10.85C160-327.64,164.32-325.55,167.89-327.46Z" transform="translate(-104.16 342.69)"/><path class="cls-1" d="M178.48-327c3.21,0,3.22-5,0-5a2.78,2.78,0,1,1,0-5.52c3.22,0.08,3.22-4.92,0-5a8.07,8.07,0,0,0-8.25,7.73C170.24-330.43,174.24-327,178.48-327Z" transform="translate(-104.16 342.69)"/><path class="cls-1" d="M190.81-326.69c3.22,0,3.22-5,0-5-1.47,0-3.08-1.36-2.69-3a2.69,2.69,0,0,1,3.43-1.7c3.09,0.94,4.4-3.89,1.33-4.82a7.72,7.72,0,0,0-9.68,5.67C182.3-330.91,186.29-326.69,190.81-326.69Z" transform="translate(-104.16 342.69)"/><path class="cls-1" d="M201.93-326.81a2.59,2.59,0,0,0,3.08-1.75,2.52,2.52,0,0,0-1.75-3.08c-3.44-.52-3.44-4.63,0-5.14a2.52,2.52,0,0,0,1.75-3.08,2.56,2.56,0,0,0-3.08-1.75,7.69,7.69,0,0,0-6.4,7.39A7.69,7.69,0,0,0,201.93-326.81Z" transform="translate(-104.16 342.69)"/><path class="cls-1" d="M139.61-271.92a2.63,2.63,0,0,0,.1.71,2.61,2.61,0,0,0,2.37,3.07,96.3,96.3,0,0,0,13.07.11c3-.2,6.48-1.13,9.57-0.65q-8.82,19.36-18.24,38.44a2.47,2.47,0,0,0,.32,2.76,2.31,2.31,0,0,0,2.37,2h15.75a2.27,2.27,0,0,0,1.91-.92,2.74,2.74,0,0,0,.35-0.28c6.68-6.61,10.45-17,14.15-25.45A245.88,245.88,0,0,0,192-281.6a2.22,2.22,0,0,0-.64-2.39c2.32-1.08,2.1-5.14-.79-4.76-7.82,1-15.85-.29-23.71-0.38a211.47,211.47,0,0,0-24.35,1.18,2.68,2.68,0,0,0-2.38,2.91,2.35,2.35,0,0,0-.52,1.54v11.59Zm47.78-11.53a2.8,2.8,0,0,0-.21.53A236.83,236.83,0,0,1,177-254.63c-3.44,7.87-7,17.94-13.12,24.18H152.14q8.94-18.18,17.33-36.63a2.53,2.53,0,0,0,0-2.19,2.78,2.78,0,0,0-1.43-3.66c-3.58-1.51-7.27-.53-11-0.21a92.89,92.89,0,0,1-12.4.16v-10.15a209.31,209.31,0,0,1,22.25-1C173.66-284,180.58-283,187.39-283.45Z" transform="translate(-104.16 342.69)"/></svg>