<?xml version="1.0" encoding="UTF-8"?>
<svg width="18px" height="18px" viewBox="0 0 18 18" version="1.1" xmlns="http://www.w3.org/2000/svg" xmlns:xlink="http://www.w3.org/1999/xlink">
    <!-- Generator: Sketch 42 (36781) - http://www.bohemiancoding.com/sketch -->
    <title>Group 2</title>
    <desc>Created with Sketch.</desc>
    <defs></defs>
    <g id="Welcome" stroke="none" stroke-width="1" fill="none" fill-rule="evenodd" opacity="0.4">
        <g id="Hlasovani-pop-up" transform="translate(-430.000000, -644.000000)" fill="#000000">
            <g id="Group-2" transform="translate(430.000000, 644.000000)">
                <path d="M13.7729508,3.12631967 C13.1683279,3.12631967 12.6767213,3.61792623 12.6767213,4.2222541 C12.6767213,4.8265082 13.1683279,5.31811475 13.7729508,5.31811475 C14.3772049,5.31811475 14.8688115,4.8265082 14.8688115,4.2222541 C14.8688115,3.61792623 14.3772049,3.12631967 13.7729508,3.12631967" id="Fill-1"></path>
                <path d="M8.99195902,11.6670172 C7.51772951,11.6670172 6.31718852,10.4667713 6.31718852,8.99195164 C6.31718852,7.51772213 7.51772951,6.31777131 8.99195902,6.31777131 C10.4667787,6.31777131 11.6664344,7.51772213 11.6664344,8.99195164 C11.6664344,10.4667713 10.4667787,11.6670172 8.99195902,11.6670172 M8.99195902,4.36027131 C6.4382459,4.36027131 4.36027869,6.43823852 4.36027869,8.99195164 C4.36027869,11.5459598 6.4382459,13.623927 8.99195902,13.623927 C11.5459672,13.623927 13.6239344,11.5459598 13.6239344,8.99195164 C13.6239344,6.43823852 11.5459672,4.36027131 8.99195902,4.36027131" id="Fill-3"></path>
                <path d="M16.0272295,13.4475418 C16.0272295,14.8699844 14.8699918,16.0272221 13.447623,16.0272221 L4.53666393,16.0272221 C3.11451639,16.0272221 1.95727869,14.8699844 1.95727869,13.4475418 L1.95727869,4.53665656 C1.95727869,3.11450902 3.11451639,1.95727131 4.53666393,1.95727131 L13.447623,1.95727131 C14.8699918,1.95727131 16.0272295,3.11450902 16.0272295,4.53665656 L16.0272295,13.4475418 Z M13.447623,-7.37704949e-06 L4.53666393,-7.37704949e-06 C2.03503279,-7.37704949e-06 0,2.03502541 0,4.53665656 L0,13.4475418 C0,15.949468 2.03503279,17.9842057 4.53666393,17.9842057 L13.447623,17.9842057 C15.9494754,17.9842057 17.9842131,15.949468 17.9842131,13.4475418 L17.9842131,4.53665656 C17.9842131,2.03502541 15.9494754,-7.37704949e-06 13.447623,-7.37704949e-06 L13.447623,-7.37704949e-06 Z" id="Fill-5"></path>
            </g>
        </g>
    </g>
</svg>