<?xml version="1.0" encoding="UTF-8"?>
<svg width="40px" height="40px" viewBox="0 0 40 40" version="1.1" xmlns="http://www.w3.org/2000/svg" xmlns:xlink="http://www.w3.org/1999/xlink">
    <!-- Generator: Sketch 42 (36781) - http://www.bohemiancoding.com/sketch -->
    <title>Combined Shape</title>
    <desc>Created with Sketch.</desc>
    <defs></defs>
    <g id="Page-1" stroke="none" stroke-width="1" fill="none" fill-rule="evenodd">
        <g id="Artboard" transform="translate(-355.000000, -93.000000)" fill-rule="nonzero" fill="#FFFFFF">
            <path d="M391.774194,96.3064516 C389.677419,94.1290323 386.693548,93 383.306452,93 L366.693548,93 C359.677419,93 355,97.6774194 355,104.693548 L355,121.225806 C355,124.693548 356.129032,127.677419 358.387097,129.854839 C360.564516,131.951613 363.467742,133 366.774194,133 L383.225806,133 C386.693548,133 389.596774,131.870968 391.693548,129.854839 C393.870968,127.758065 395,124.774194 395,121.306452 L395,104.693548 C395,101.306452 393.870968,98.4032258 391.774194,96.3064516 Z M391.290323,121.306452 C391.290323,123.806452 390.564516,125.822581 389.112903,127.193548 C387.66129,128.564516 385.645161,129.290323 383.225806,129.290323 L366.774194,129.290323 C364.354839,129.290323 362.33871,128.564516 360.887097,127.193548 C359.435484,125.741935 358.709677,123.725806 358.709677,121.225806 L358.709677,104.693548 C358.709677,102.274194 359.435484,100.258065 360.887097,98.8064516 C362.258065,97.4354839 364.354839,96.7096774 366.774194,96.7096774 L383.387097,96.7096774 C385.806452,96.7096774 387.822581,97.4354839 389.274194,98.8870968 C390.645161,100.33871 391.451613,102.354839 391.451613,104.693548 L391.451613,121.306452 L391.290323,121.306452 Z M385.725806,104.693548 C387.01744,104.693548 388.064516,103.646472 388.064516,102.354839 C388.064516,101.063205 387.01744,100.016129 385.725806,100.016129 C384.434173,100.016129 383.387097,101.063205 383.387097,102.354839 C383.387097,103.646472 384.434173,104.693548 385.725806,104.693548 Z M375,102.596774 C369.354839,102.596774 364.677419,107.193548 364.677419,112.919355 C364.677419,118.645161 369.274194,123.241935 375,123.241935 C380.725806,123.241935 385.322581,118.564516 385.322581,112.919355 C385.322581,107.274194 380.645161,102.596774 375,102.596774 Z M375,119.532258 C371.370968,119.532258 368.387097,116.548387 368.387097,112.919355 C368.387097,109.290323 371.370968,106.306452 375,106.306452 C378.629032,106.306452 381.612903,109.290323 381.612903,112.919355 C381.612903,116.548387 378.629032,119.532258 375,119.532258 Z" id="Combined-Shape"></path>
        </g>
    </g>
</svg>