<?xml version="1.0" encoding="UTF-8"?>
<svg width="18px" height="18px" viewBox="0 0 18 18" version="1.1" xmlns="http://www.w3.org/2000/svg" xmlns:xlink="http://www.w3.org/1999/xlink">
    <!-- Generator: Sketch 42 (36781) - http://www.bohemiancoding.com/sketch -->
    <title>Fill 1</title>
    <desc>Created with Sketch.</desc>
    <defs></defs>
    <g id="Welcome" stroke="none" stroke-width="1" fill="none" fill-rule="evenodd">
        <g id="Hlasovani-pop-up" transform="translate(-547.000000, -644.000000)" fill="#999999">
            <path d="M562.337,659.338 L559.67,659.338 L559.67,655.161 C559.67,654.165 559.6505,652.8835 558.2825,652.8835 C556.893,652.8835 556.681,653.9685 556.681,655.089 L556.681,659.338 L554.0145,659.338 L554.0145,650.7485 L556.574,650.7485 L556.574,651.922 L556.6105,651.922 C556.9665,651.2465 557.8375,650.5345 559.1365,650.5345 C561.8375,650.5345 562.337,652.313 562.337,654.6265 L562.337,659.338 Z M551.004,649.574 C550.1465,649.574 549.455,648.88 549.455,648.0255 C549.455,647.172 550.1465,646.478 551.004,646.478 C551.8585,646.478 552.5515,647.172 552.5515,648.0255 C552.5515,648.88 551.8585,649.574 551.004,649.574 L551.004,649.574 Z M549.667,659.338 L552.3395,659.338 L552.3395,650.7485 L549.667,650.7485 L549.667,659.338 Z M563.667,644 L548.3275,644 C547.5955,644 547,644.581 547,645.297 L547,660.7015 C547,661.418 547.5955,662 548.3275,662 L563.667,662 C564.4005,662 565,661.418 565,660.7015 L565,645.297 C565,644.581 564.4005,644 563.667,644 L563.667,644 Z" id="Fill-1"></path>
        </g>
    </g>
</svg>