<svg id="Vrstva_1" data-name="Vrstva 1" xmlns="http://www.w3.org/2000/svg" viewBox="0 0 106.95 149.29"><defs><style>.cls-1{fill:#1d1d1b;}</style></defs><title>pin</title><path class="cls-1" d="M363.47-337.26c-9.32-6.06-20.9-8.09-31.83-8.44-11.89-.38-24.48,1-34.67,7.6-19.43,12.62-25.77,37.43-21.85,59.21,5.61,31.13,28.2,54.94,46.4,79.43a2.61,2.61,0,0,0,1,.81,2.67,2.67,0,0,0,4.77,1.08l27.23-38.37c7.69-10.83,15.67-21.66,20.69-34.05C383.76-291.16,385-323.29,363.47-337.26ZM371-273c-5.05,13.21-13.86,24.66-22,36.1L325-203c-14.48-19.34-31.3-37.76-40.27-60.51-8.29-21-8.92-46.76,7.54-64.17,14.8-15.65,42.52-16.4,61.64-8.82C379-326.6,379.34-294.74,371-273Z" transform="translate(-274.01 345.76)"/><path class="cls-1" d="M318.15-311.8a2.58,2.58,0,0,0-.8.87c-11,4.65-16.69,17.48-11.23,28.59,4.74,9.65,21,20.07,31.56,13.85C349.14-275.19,354.83-292,349-304,343.47-315.43,328.54-318.9,318.15-311.8Zm18.7,37.72c-7.61,6.41-21.06-1.95-25.42-9-5.5-8.85-1-20.3,8.75-23.62a2.42,2.42,0,0,0,1.53-1.43c7.58-4.43,17.7-2.55,22.31,5.36C349.62-293.16,344.78-280.76,336.86-274.08Z" transform="translate(-274.01 345.76)"/></svg>