<?xml version="1.0" encoding="UTF-8"?>
<svg width="40px" height="38px" viewBox="0 0 40 38" version="1.1" xmlns="http://www.w3.org/2000/svg" xmlns:xlink="http://www.w3.org/1999/xlink">
    <!-- Generator: Sketch 42 (36781) - http://www.bohemiancoding.com/sketch -->
    <title>Shape</title>
    <desc>Created with Sketch.</desc>
    <defs></defs>
    <g id="Page-1" stroke="none" stroke-width="1" fill="none" fill-rule="evenodd">
        <g id="Artboard" transform="translate(-439.000000, -94.000000)" fill-rule="nonzero" fill="#FFFFFF">
            <path d="M459.255245,131.549999 C459.152129,131.549999 459.050864,131.547021 458.949519,131.542272 L458.949277,131.542272 C458.884719,131.547262 458.817182,131.549999 458.749646,131.549999 C456.379663,131.549999 454.858437,130.474725 453.387522,129.434708 C452.371815,128.717 451.413422,128.03954 450.284054,127.851419 C449.732974,127.760217 449.18447,127.713851 448.654399,127.713851 C447.699467,127.713851 446.946099,127.86124 446.396146,127.968784 C446.061924,128.034227 445.773585,128.090414 445.554473,128.090414 C445.325541,128.090414 445.07745,128.040909 444.969665,127.672556 C444.875967,127.353387 444.808188,127.04436 444.742986,126.745315 C444.57499,125.975767 444.455694,125.502527 444.133224,125.453022 C440.374272,124.872399 439.298434,124.080715 439.058554,123.518928 C439.024584,123.438593 439.005265,123.358096 439.000677,123.278404 C438.988522,123.062593 439.141385,122.872057 439.354621,122.837202 C445.132993,121.885651 447.72418,115.979853 447.831723,115.729026 C447.834621,115.722103 447.837841,115.715422 447.84098,115.708499 C448.194683,114.991837 448.26391,114.369679 448.047535,113.859732 C447.651008,112.925166 446.357749,112.514472 445.501587,112.242876 C445.292134,112.176628 445.093549,112.113921 444.936903,112.052099 C443.228603,111.376732 443.086446,110.683495 443.15358,110.330195 C443.268046,109.728161 444.07261,109.308612 444.723265,109.308612 C444.901726,109.308612 445.058775,109.340248 445.19087,109.401908 C445.959371,109.761889 446.651884,109.944375 447.249491,109.944375 C448.075226,109.944375 448.435609,109.597354 448.479721,109.551873 C448.458712,109.160821 448.432711,108.7523 448.406147,108.3309 C448.234046,105.599005 448.02081,102.204461 448.885103,100.266826 C451.475485,94.4586699 456.968657,94.0074862 458.590504,94.0074862 C458.63204,94.0074862 459.301531,94.0004025 459.301531,94.0004025 L459.397563,94 C461.023193,94 466.528359,94.4520692 469.120191,100.263364 C469.984725,102.202046 469.770845,105.599488 469.598421,108.32929 L469.591257,108.447942 C469.56735,108.828128 469.544328,109.197527 469.525008,109.551229 C469.566303,109.59341 469.897788,109.912498 470.646407,109.941236 L470.647212,109.941236 C471.216082,109.919421 471.869876,109.738062 472.587343,109.401989 C472.79768,109.303863 473.031201,109.283095 473.190182,109.283095 C473.43296,109.283095 473.679199,109.330105 473.88358,109.415431 L473.895977,109.420503 C474.476358,109.626172 474.856543,110.033002 474.864674,110.458024 C474.87224,110.858254 474.566675,111.460047 473.067747,112.05218 C472.912388,112.113196 472.713803,112.176306 472.503546,112.242957 C471.646578,112.514875 470.353722,112.925247 469.957437,113.859571 C469.74082,114.369276 469.810208,114.991032 470.163749,115.708096 C470.166889,115.715019 470.170431,115.7217 470.173168,115.729106 C470.280711,115.979692 472.869645,121.8838 478.650512,122.836397 C478.863989,122.871574 479.016369,123.061949 479.004617,123.278002 C478.999787,123.358982 478.980065,123.440525 478.945532,123.519814 C478.707101,124.077575 477.632068,124.868213 473.871908,125.449238 C473.564733,125.496409 473.445679,125.896719 473.262388,126.736058 C473.195736,127.041543 473.1282,127.341634 473.035307,127.657181 C472.955212,127.931031 472.78456,128.059181 472.497508,128.059181 L472.45074,128.059181 C472.251511,128.059181 471.968243,128.023521 471.609308,127.953087 C470.972741,127.828558 470.258977,127.713851 469.350894,127.713851 C468.820582,127.713851 468.271917,127.760217 467.720434,127.851419 C466.592354,128.03954 465.634525,128.715712 464.62075,129.432374 C463.146936,130.474725 461.625952,131.549999 459.255245,131.549999 Z" id="Shape"></path>
        </g>
    </g>
</svg>