<svg id="Vrstva_1" data-name="Vrstva 1" xmlns="http://www.w3.org/2000/svg" viewBox="0 0 152.58 145.77"><defs><style>.cls-1{fill:#1d1d1b;}</style></defs><title>ticket</title><path class="cls-1" d="M597.46-349.45c-4.58.39-9.47,0.35-14,1.25a6.73,6.73,0,0,0-5,3.29c-1.78,3-2.45,7.46-3.5,10.79l-4.58,14.59H502.71a2.32,2.32,0,0,0-2.39,2.19,2.28,2.28,0,0,0-.16,1.78c4.38,15.14,7.33,30.63,10.37,46.09H463.38a2.62,2.62,0,0,0-.72.11,2.66,2.66,0,0,0-2.34,2.35,8.71,8.71,0,0,1-8.54,7.38,2.45,2.45,0,0,0-2.32,3.21,2.37,2.37,0,0,0-1.88,2.32q-0.51,17.39-.17,34.79a2.37,2.37,0,0,0,.62,1.6,2.14,2.14,0,0,0,2.93,1.61c4.68-1.71,9.56,1.85,8.43,7a2.5,2.5,0,0,0,1.81,3,2.26,2.26,0,0,0,2.17,1.38h82.44a2.56,2.56,0,0,0,.87-0.15c2.94,1.9,8.36,1,11.37,1a135.33,135.33,0,0,0,19.29-1.61,2,2,0,0,0,1.8-2.06,2.1,2.1,0,0,0,.79-1.4l17.14-105.67a2.55,2.55,0,0,0-.39-1.86,2.42,2.42,0,0,0-2.37-3H575.59l5.6-17.83c1.25-4,1.79-5.84,6.33-6.23l9.94-.86C600.64-344.73,600.67-349.73,597.46-349.45ZM452.38-221.56q-0.26-16.28.2-32.55a2.7,2.7,0,0,0,0-.57,13.73,13.73,0,0,0,12.24-9.8h80.78a11.14,11.14,0,0,0,12.09,10.57q0.26,16.28-.2,32.55a2.77,2.77,0,0,0,0,.57,13.77,13.77,0,0,0-12.56,11H464.47A11.17,11.17,0,0,0,452.38-221.56Zm122.74,11.25s0,0.06,0,.09A125.21,125.21,0,0,1,561.8-209q-2.8.1-5.61,0.08c-0.54,0-5.38.14-6.4,0.06a8.74,8.74,0,0,1,8.47-7,2.45,2.45,0,0,0,2.32-3.21,2.37,2.37,0,0,0,1.88-2.32q0.51-17.39.17-34.79a2.36,2.36,0,0,0-.62-1.6,2.14,2.14,0,0,0-2.93-1.61c-4.68,1.71-9.56-1.85-8.43-7a2.63,2.63,0,0,0-3.71-2.87,2.49,2.49,0,0,0-1.11-.25h-30.2c-3-15.09-5.85-30.23-10-45.05H592Z" transform="translate(-447.28 349.46)"/></svg>