<?xml version="1.0" encoding="UTF-8"?>
<svg width="20px" height="16px" viewBox="0 0 20 16" version="1.1" xmlns="http://www.w3.org/2000/svg" xmlns:xlink="http://www.w3.org/1999/xlink">
    <!-- Generator: Sketch 42 (36781) - http://www.bohemiancoding.com/sketch -->
    <title>Page 1</title>
    <desc>Created with Sketch.</desc>
    <defs></defs>
    <g id="Welcome" stroke="none" stroke-width="1" fill="none" fill-rule="evenodd" opacity="0.4">
        <g id="Hlasovani-pop-up" transform="translate(-504.000000, -645.000000)" fill="#000000">
            <path d="M504.001194,659.214726 C505.811934,660.345505 507.959748,661 510.262257,661 C516.730326,661 521.973822,655.835692 521.973822,649.466528 C521.973822,649.307497 521.970613,649.149569 521.964196,648.992229 C522.198215,648.810857 523.64524,647.668614 524,646.93453 C524,646.93453 522.824679,647.41537 521.674731,647.528544 C521.672343,647.528544 521.669731,647.529058 521.667418,647.529058 C521.667418,647.529058 521.669731,647.527956 521.673537,647.525384 C521.779652,647.455569 523.261078,646.462362 523.461591,645.279039 C523.461591,645.279039 522.630509,645.715932 521.466904,646.098076 C521.274227,646.161203 521.072445,646.223228 520.864618,646.280623 C520.114577,645.492084 519.048281,645 517.864827,645 C515.59463,645 513.755011,646.811142 513.755011,649.045067 C513.755011,649.360263 513.791726,649.667154 513.861424,649.961698 C513.544274,649.949058 508.713222,649.682072 505.426578,645.762745 C505.426578,645.762745 503.462487,648.403506 506.597272,651.11886 C506.597272,651.11886 505.644329,651.081527 504.822351,650.597821 C504.822351,650.597821 504.52035,653.79688 508.070191,654.615036 C508.070191,654.615036 507.371789,654.875408 506.257362,654.689701 C506.257362,654.689701 506.880617,657.274758 510.034581,657.51617 C510.034581,657.51617 507.540513,659.734883 504,659.214432 L504.001194,659.214726 Z" id="Page-1"></path>
        </g>
    </g>
</svg>