<?xml version="1.0" encoding="UTF-8"?>
<svg width="40px" height="32px" viewBox="0 0 40 32" version="1.1" xmlns="http://www.w3.org/2000/svg" xmlns:xlink="http://www.w3.org/1999/xlink">
    <!-- Generator: Sketch 42 (36781) - http://www.bohemiancoding.com/sketch -->
    <title>Combined Shape</title>
    <desc>Created with Sketch.</desc>
    <defs></defs>
    <g id="Page-1" stroke="none" stroke-width="1" fill="none" fill-rule="evenodd">
        <g id="Artboard" transform="translate(-439.000000, -156.000000)" fill-rule="nonzero" fill="#FFFFFF">
            <path d="M472.226929,161.0708 C470.209159,161.07342 468.211481,160.670085 466.352781,159.8848 C460.936319,157.59378 457.642515,166.5708 465.977112,166.5708 C471.122873,166.570696 475.912762,163.944473 478.68,159.606 C476.66478,160.568411 474.460153,161.068846 472.226929,161.0708 L472.226929,161.0708 Z M469.7895,158.7583 C467.145297,158.7583 466.518356,162.0791 469.939496,162.0791 C473.34747,162.071524 476.369741,159.887906 477.447276,156.65466 C475.130072,158.031243 472.484738,158.757933 469.7895,158.7583 L469.7895,158.7583 Z M450.022098,173.99298 C448.230212,175.154026 446.041505,175.531837 443.964095,175.0387 C444.949431,178.416703 448.04224,180.741882 451.560913,180.75 C456.483214,180.225245 460.373165,176.338637 460.90228,171.41666 C460.90228,167.62956 452.225813,172.57776 450.022098,173.99298 Z M445.061103,168.08326 C443.737623,168.074579 442.437715,167.732191 441.281673,167.08778 C441.281053,167.12892 441.269474,167.167 441.269474,167.20826 C441.269485,171.603547 444.832462,175.166629 449.227621,175.16664 C453.622753,175.16664 459.777313,171.97864 459.777313,167.58334 C459.777313,164.564 449.414976,168.08326 445.061103,168.08326 Z M459.735594,165.66662 C453.036584,165.670069 446.67597,162.723235 442.347062,157.61062 C441.649137,158.803681 441.277506,160.159426 441.269514,161.54162 C441.269525,165.936884 444.832466,169.499956 449.227601,169.5 C453.477117,169.5 461.024136,169.54528 461.521062,165.57642 C460.930019,165.62232 460.338356,165.66662 459.735594,165.66662 Z M459.735594,165.66662 C459.318746,165.66662 458.569008,166.53126 458.569008,167 C458.569008,176.388841 450.958071,184 441.569505,184 C440.708813,183.993451 439.849854,183.921713 439,183.7854 C446.001843,188.490312 455.027214,188.951397 462.472052,184.984531 C469.916889,181.017666 474.568179,173.269187 474.56854,164.83326 C474.56854,163.362 465.203954,165.66662 459.735594,165.66662 Z M466.568774,172 C470.986923,172 474.56854,168.418278 474.56854,164 C474.56854,159.581722 470.986923,156 466.568774,156 C462.150625,156 458.569008,159.581722 458.569008,164 C458.569008,168.418278 462.150625,172 466.568774,172 Z" id="Combined-Shape"></path>
        </g>
    </g>
</svg>