<?xml version="1.0" encoding="UTF-8"?>
<svg width="37px" height="11px" viewBox="0 0 37 11" version="1.1" xmlns="http://www.w3.org/2000/svg" xmlns:xlink="http://www.w3.org/1999/xlink">
    <!-- Generator: Sketch 42 (36781) - http://www.bohemiancoding.com/sketch -->
    <title>WEB</title>
    <desc>Created with Sketch.</desc>
    <defs></defs>
    <g id="Welcome" stroke="none" stroke-width="1" fill="none" fill-rule="evenodd">
        <g id="Hlasovani-pop-up" transform="translate(-589.000000, -648.000000)" fill="#FFFFFF">
            <path d="M601.07846,658.390704 L598.598193,658.390704 L596.543534,651.360835 L596.499505,651.360835 L594.444846,658.390704 L591.949903,658.390704 L589,648 L591.700409,648 L593.344136,654.91246 L593.388165,654.91246 L595.237358,648 L597.84971,648 L599.713579,654.91246 L599.757607,654.91246 L601.430687,648 L604.043039,648 L601.07846,658.390704 Z M607.001329,658.390704 L607.001329,648 L613.987169,648 L613.987169,650.12804 L609.422891,650.12804 L609.422891,652.079966 L613.737675,652.079966 L613.737675,654.090596 L609.422891,654.090596 L609.422891,656.247988 L614.25134,656.247988 L614.25134,658.390704 L607.001329,658.390704 Z M625.897902,655.36742 C625.897902,655.9349 625.785386,656.41187 625.56035,656.798343 C625.335315,657.184817 625.036903,657.495459 624.665106,657.730278 C624.293309,657.965097 623.870151,658.133871 623.39562,658.236605 C622.92109,658.339338 622.434336,658.390704 621.935345,658.390704 L617.796675,658.390704 L617.796675,648 L621.935345,648 C622.336495,648 622.747422,648.041582 623.16814,648.124747 C623.588858,648.207912 623.970434,648.34978 624.312879,648.550355 C624.655324,648.75093 624.934168,649.022436 625.149419,649.364881 C625.36467,649.707325 625.472294,650.142713 625.472294,650.671057 C625.472294,651.248321 625.31575,651.725291 625.002657,652.10198 C624.689565,652.478669 624.278637,652.750175 623.769862,652.916505 L623.769862,652.945858 C624.063386,652.994778 624.339784,653.08528 624.599064,653.217366 C624.858343,653.349452 625.083375,653.518226 625.274166,653.723693 C625.464957,653.92916 625.616608,654.168868 625.729126,654.442824 C625.841644,654.716779 625.897902,655.024975 625.897902,655.36742 Z M623.050731,651.008608 C623.050731,650.656379 622.916201,650.399549 622.647138,650.238111 C622.378074,650.076672 621.979376,649.995954 621.451032,649.995954 L620.218237,649.995954 L620.218237,652.13867 L621.568442,652.13867 C622.03808,652.13867 622.402534,652.043276 622.661814,651.852486 C622.921093,651.661695 623.050731,651.380405 623.050731,651.008608 Z M623.388282,655.132602 C623.388282,654.7021 623.226846,654.403688 622.90397,654.237358 C622.581093,654.071027 622.150598,653.987863 621.61247,653.987863 L620.218237,653.987863 L620.218237,656.365397 L621.627146,656.365397 C621.822829,656.365397 622.025847,656.348275 622.236206,656.314031 C622.446565,656.279786 622.637353,656.218636 622.808575,656.130579 C622.979797,656.042522 623.119219,655.917776 623.226845,655.756338 C623.33447,655.594899 623.388282,655.38699 623.388282,655.132602 Z" id="WEB"></path>
        </g>
    </g>
</svg>