<?xml version="1.0" encoding="UTF-8"?>
<svg width="52px" height="21px" viewBox="0 0 52 21" version="1.1" xmlns="http://www.w3.org/2000/svg" xmlns:xlink="http://www.w3.org/1999/xlink">
    <!-- Generator: Sketch 42 (36781) - http://www.bohemiancoding.com/sketch -->
    <title>Group 8</title>
    <desc>Created with Sketch.</desc>
    <defs>
        <polygon id="path-1" points="0.00612097066 0.0119 0.00612097066 13.6856 12.2419413 13.6856 12.2419413 0.0119 0.00612097066 0.0119"></polygon>
        <polygon id="path-3" points="0.0422346976 20.994 30.5051835 20.994 30.5051835 0.0923 15.2737091 0.0923 0.0422346976 0.0923 0.0422346976 20.994"></polygon>
    </defs>
    <g id="Welcome" stroke="none" stroke-width="1" fill="none" fill-rule="evenodd">
        <g id="Home" transform="translate(-800.000000, -3235.000000)">
            <g id="Group-8" transform="translate(800.000000, 3235.000000)">
                <path d="M19.4068574,17.1 L17.46855,17.1 L17.46855,16 C16.7337275,16.8256 16.1108167,17.2426 15.4317971,17.2426 C14.8360226,17.2426 14.422347,16.9671 14.2151521,16.4694 C14.0892642,16.1667 14,15.6942 14,15 L14,7 L15.9383074,7 L15.9383074,14.5 L15.9383074,15.2 C15.9835005,15.4807 16.1051038,15.5832 16.3515749,15.5832 C16.7226078,15.5832 17.058343,15.2672 17.46855,14.7 L17.46855,7 L19.4068574,7 L19.4068574,17.1" id="Fill-1" fill="#FFFFFF"></path>
                <g id="Group-5" transform="translate(0.000000, 3.000000)">
                    <mask id="mask-2" fill="white">
                        <use xlink:href="#path-1"></use>
                    </mask>
                    <g id="Clip-3"></g>
                    <path d="M10.3036339,10.5119 C10.4056501,11.5119 10.0891959,12.0081 9.48730049,12.0081 C8.88550706,12.0081 8.56935893,11.5119 8.67137511,10.5119 L8.67137511,6.5119 C8.56935893,5.5119 8.88560908,5.0432 9.48750453,5.0432 C10.0894,5.0432 10.4066703,5.5119 10.3046541,6.5119 L10.3036339,10.5119 Z M12.2419413,6.7119 C12.2419413,5.6326 12.0207703,4.8221 11.6298443,4.3119 C11.1134384,3.6211 10.3036339,3.3383 9.48750453,3.3383 C8.56374804,3.3383 7.86075456,3.6211 7.3451648,4.3119 C6.94801582,4.8221 6.73500604,5.6414 6.73500604,6.7207 L6.73306773,10.3119 C6.73306773,11.3852 6.92251177,12.1268 7.31976277,12.632 C7.83535253,13.3207 8.67137511,13.6856 9.48750453,13.6856 C10.3036339,13.6856 11.1543469,13.3207 11.6706507,12.632 C12.0615767,12.1268 12.2419413,11.3852 12.2419413,10.3119 L12.2419413,6.7119 L12.2419413,6.7119 Z" id="Fill-2" fill="#FFFFFF" mask="url(#mask-2)"></path>
                    <path d="M4.590728,8.0119 L4.590728,13.5119 L2.55040444,13.5119 L2.55040444,8.0119 C2.55040444,8.0119 0.43611916,1.2688 0,0.0119 L2.14233973,0.0119 L3.57413679,5.2795 L4.99879271,0.0119 L7.14113244,0.0119 L4.590728,8.0119" id="Fill-4" fill="#FFFFFF" mask="url(#mask-2)"></path>
                </g>
                <path d="M38.9633388,8 C38.6592285,8 38.3109453,8.1573 38.0021423,8.4561 L38,14.5207 C38.308905,14.8234 38.6592285,14.9768 38.9633388,14.9768 C39.4959652,14.9768 39.7364174,14.5936 39.7364174,13.5936 L39.7364174,9.2936 C39.7364174,8.2936 39.4959652,8 38.9633388,8" id="Fill-6" fill="#FFFFFF"></path>
                <g id="Group-10" transform="translate(21.000000, 0.000000)">
                    <mask id="mask-4" fill="white">
                        <use xlink:href="#path-3"></use>
                    </mask>
                    <g id="Clip-8"></g>
                    <path d="M26.0141253,9.7203 C26.0141253,8.796 25.7704087,8.5183 25.1581076,8.5183 C24.5413178,8.5183 24.2798503,8.7732 24.2798503,9.7078 L24.2798503,10.8138 L26.0141253,10.8119 L26.0141253,9.7203" id="Fill-7" fill="#FFFFFF" mask="url(#mask-4)"></path>
                    <path d="M25.1752463,15.4951 C25.6299324,15.4951 25.8949704,15.2527 26.0003531,14.7688 C26.0174919,14.6701 26.0142273,14.2383 26.0142273,13.5119 L27.9524327,13.5119 L27.9524327,13.7953 C27.9524327,14.3787 27.9034649,14.7916 27.8868363,14.9729 C27.8245044,15.3742 27.6794374,15.7373 27.4548998,16.0576 C26.9440028,16.7832 26.1861246,17.1408 25.2211536,17.1408 C24.2549583,17.1408 23.5195237,16.8 22.985571,16.1172 C22.5932168,15.6172 22.3415429,14.8738 22.3415429,13.8119 L22.3415429,10.3119 C22.3415429,9.2439 22.5704672,8.4183 22.9628214,7.9129 C23.4969781,7.2291 24.2324128,6.8672 25.1752463,6.8672 C26.1017572,6.8672 26.8371918,7.2291 27.3549239,7.9129 C27.7410552,8.4183 27.9555952,9.1996 27.9555952,10.2676 L27.9560033,12.3119 L24.2798503,12.3119 L24.2798503,14.1077 C24.2735253,15.0305 24.5413178,15.4951 25.1752463,15.4951 Z M21.1173488,14.0119 C21.1173488,14.9361 21.036654,15.5883 20.9133164,16.0119 C20.6668453,16.7549 20.1294241,17.1408 19.3939895,17.1408 C18.7373114,17.1408 18.0644127,16.7535 17.4473168,16.0051 L17.4447664,17.0119 L15.6084752,17.0119 L15.6084752,3.6119 L17.4447664,3.6119 L17.442624,7.9807 C18.0392147,7.2611 18.7145618,6.8515 19.3939895,6.8515 C20.1294241,6.8515 20.6237945,7.2679 20.8702656,8.0164 C20.9936032,8.4183 21.1173488,9.0654 21.1173488,10.0119 L21.1173488,14.0119 Z M14.0782325,17.0119 L12.1399251,17.0119 L12.1399251,15.9119 C11.4051026,16.7375 10.7821918,17.1545 10.1031722,17.1545 C9.50739768,17.1545 9.09372208,16.879 8.88652722,16.3813 C8.76063926,16.0786 8.67137511,15.6061 8.67137511,14.9119 L8.67137511,7.0119 L10.6096825,7.0119 L10.6096825,14.4119 L10.6096825,15.1119 C10.6548756,15.3926 10.7764789,15.4951 11.02295,15.4951 C11.3939829,15.4951 11.7297181,15.1791 12.1399251,14.6119 L12.1399251,7.0119 L14.0782325,7.0119 L14.0782325,17.0119 Z M6.73306773,17.0119 L4.69274417,17.0119 L4.69274417,5.5119 L2.55040444,5.5119 L2.55040444,3.614 L8.97742364,3.6119 L8.97742364,5.5119 L6.73306773,5.5119 L6.73306773,17.0119 Z M30.2009713,4.6027 C30.2009713,4.6027 29.9032881,2.5542 28.9899372,1.6521 C27.8316455,0.4682 26.5329796,0.4622 25.9376132,0.393 C21.6748672,0.0923 15.2804932,0.0923 15.2804932,0.0923 L15.2671291,0.0923 C15.2671291,0.0923 8.87265302,0.0923 4.60990704,0.393 C4.01433659,0.4622 2.71618073,0.4682 1.557583,1.6521 C0.644130146,2.5542 0.346855004,4.6027 0.346855004,4.6027 C0.346855004,4.6027 0.0422346976,7.0082 0.0422346976,9.4139 L0.0422346976,11.6692 C0.0422346976,14.0746 0.346855004,16.4801 0.346855004,16.4801 C0.346855004,16.4801 0.644130146,18.5285 1.557583,19.4307 C2.71618073,20.6149 4.23867017,20.5772 4.91646565,20.7012 C7.35353012,20.9295 15.2737601,21 15.2737601,21 C15.2737601,21 21.6748672,20.9906 25.9376132,20.6901 C26.5329796,20.6207 27.8316455,20.6149 28.9899372,19.4307 C29.9032881,18.5285 30.2009713,16.4801 30.2009713,16.4801 C30.2009713,16.4801 30.5051835,14.0746 30.5051835,11.6692 L30.5051835,9.4139 C30.5051835,7.0082 30.2009713,4.6027 30.2009713,4.6027 L30.2009713,4.6027 Z" id="Fill-9" fill="#FFFFFF" mask="url(#mask-4)"></path>
                </g>
            </g>
        </g>
    </g>
</svg>